# xmcd
# Track frame offsets:
# 150
# 14077
# 32098
# 43626
# 56348
# 72119
# 88817
# 100252
# 113342
# 125475
#
# Disc length: 1871 seconds
# Revision: 0
# Processed by: cddbd v1.5.1PL0 Copyright (c) Steve Scherf et al.
# Submitted via: VisiTrax 2.9.9.209 - For more info visit www.synapsa.com
#
DISCID=7e074d0a
DTITLE=Ricky Calmbach - A step in the right direction
DYEAR=5
DGENRE=Country
TTITLE0=Countin' on a barstool
TTITLE1=Texas is a spark
TTITLE2=It's too late to lie
TTITLE3=Honky tonk stardust cowboy
TTITLE4=A step in the right direction
TTITLE5=Drinkin' about you
TTITLE6=All the way to San Antone
TTITLE7=Never meant to be
TTITLE8=You're not waitin' at home anymore
TTITLE9=Dance time in Texas
EXTD=
EXTT0=
EXTT1=
EXTT2=
EXTT3=
EXTT4=
EXTT5=
EXTT6=
EXTT7=
EXTT8=
EXTT9=
PLAYORDER=
